<svg width="232" height="42" viewBox="0 0 232 42" fill="none" xmlns="http://www.w3.org/2000/svg">
<path d="M4.74134 33.7528C4.74134 34.3329 4.53016 34.8248 4.11461 35.2284C3.69565 35.6257 3.16089 35.8212 2.50691 35.8212C1.887 35.8212 1.36927 35.6257 0.953717 35.2284C0.534762 34.8248 0.326989 34.3329 0.326989 33.7528V15.1368C0.326989 14.5661 0.534762 14.0774 0.953717 13.6738C1.36927 13.2702 1.887 13.0684 2.50691 13.0684C3.16089 13.0684 3.69565 13.2702 4.11461 13.6738C4.53016 14.0774 4.74134 14.5661 4.74134 15.1368V33.7528ZM2.50691 10.2306C1.60769 10.2306 0.96053 10.0792 0.57223 9.77654C0.190743 9.47384 0 8.99457 0 8.33872V7.64504C0 6.96397 0.207774 6.48154 0.626728 6.19461C1.04228 5.90137 1.68944 5.75317 2.56141 5.75317C3.42316 5.75317 4.04648 5.90452 4.42797 6.20722C4.81627 6.50992 5.01383 6.98919 5.01383 7.64504V8.33872C5.01383 9.02925 4.81286 9.51798 4.41435 9.80176C4.01242 10.0887 3.37888 10.2306 2.50691 10.2306Z" fill="#3B0F94"/>
<path d="M21.5127 36.25C19.2511 36.25 17.2517 35.9536 15.5179 35.3671C13.7808 34.7807 12.1254 33.8253 10.545 32.5041C9.89781 31.9933 9.57764 31.4068 9.57764 30.751C9.57764 30.2307 9.78882 29.7641 10.218 29.351C10.654 28.9316 11.1649 28.7204 11.7576 28.7204C12.2821 28.7204 12.7317 28.8812 13.1064 29.1997C14.3394 30.2591 15.6167 31.0411 16.9349 31.5456C18.2496 32.0438 19.7449 32.2897 21.4174 32.2897C23.3691 32.2897 25.0176 31.8798 26.3631 31.0537C27.7153 30.2213 28.3931 29.1744 28.3931 27.9132C28.3556 26.4186 27.6778 25.2614 26.3631 24.4448C25.0449 23.6313 23.0421 22.9502 20.3546 22.4016C17.1563 21.7962 14.7005 20.8092 12.9838 19.4376C11.2671 18.0597 10.4087 16.1521 10.4087 13.7116C10.4087 12.0215 10.8856 10.5427 11.8393 9.27203C12.7998 7.99502 14.1316 7.01125 15.8313 6.32072C17.5378 5.63334 19.4622 5.2865 21.6081 5.2865C23.5223 5.2865 25.331 5.57343 27.0307 6.14414C28.7371 6.71801 30.1166 7.47791 31.1725 8.42699C31.8878 9.00086 32.2488 9.61256 32.2488 10.2684C32.2488 10.7918 32.0377 11.2522 31.6221 11.6558C31.2032 12.0531 30.6991 12.2486 30.1098 12.2486C29.6738 12.2486 29.3128 12.135 29.0335 11.908C28.233 11.1607 27.1192 10.5301 25.6955 10.0162C24.2683 9.50536 22.9058 9.2468 21.6081 9.2468C19.5269 9.2468 17.875 9.64409 16.6488 10.4324C15.4294 11.2143 14.8231 12.2549 14.8231 13.5476C14.8231 14.9539 15.4294 16.0291 16.6488 16.7764C17.875 17.5174 19.6938 18.1449 22.1122 18.6557C24.5271 19.1444 26.5027 19.7214 28.0389 20.3836C29.5716 21.0394 30.757 21.957 31.5949 23.1331C32.4294 24.3123 32.8483 25.8448 32.8483 27.7366C32.8483 29.4015 32.3442 30.8834 31.336 32.1762C30.3278 33.4627 28.9551 34.4653 27.2214 35.178C25.4843 35.8906 23.5836 36.25 21.5127 36.25Z" fill="#5E17EB"/>
<path d="M59.5158 23.688C59.4783 24.2114 59.2433 24.6528 58.8073 25.0123C58.3781 25.3654 57.8706 25.542 57.2813 25.542H40.9319C41.1499 27.6357 42.0082 29.3131 43.5069 30.5744C45.0056 31.8356 46.8381 32.4662 49.0113 32.4662C50.4997 32.4662 51.7089 32.2707 52.6354 31.8735C53.5618 31.4699 54.3827 30.9527 55.1014 30.3221C55.5647 30.0636 56.0143 29.9311 56.4502 29.9311C56.9748 29.9311 57.4176 30.1046 57.7718 30.4482C58.1261 30.7951 58.3032 31.1924 58.3032 31.6464C58.3032 32.2518 57.9932 32.8005 57.3767 33.286C56.4775 34.1185 55.2819 34.8216 53.7935 35.3923C52.3118 35.963 50.7961 36.25 49.2429 36.25C46.736 36.25 44.5288 35.7644 42.6214 34.7869C40.7139 33.8126 39.2425 32.4505 38.207 30.7005C37.1715 28.9537 36.6538 26.9767 36.6538 24.7727C36.6538 22.3605 37.1852 20.2448 38.2479 18.4286C39.3174 16.6061 40.7309 15.2061 42.4851 14.2287C44.2359 13.2544 46.116 12.7656 48.1257 12.7656C50.1148 12.7656 51.9712 13.2417 53.6981 14.1908C55.4318 15.1336 56.8249 16.4358 57.8808 18.1007C58.9333 19.7655 59.4783 21.629 59.5158 23.688ZM48.1257 16.5494C46.3885 16.5494 44.8864 17.0034 43.6159 17.9115C42.3523 18.8133 41.5178 20.207 41.109 22.0988H54.8153V21.7583C54.6586 20.2385 53.9229 18.9899 52.6081 18.0124C51.29 17.0381 49.7947 16.5494 48.1257 16.5494Z" fill="#5E17EB"/>
<path d="M84.3591 12.98C85.0131 12.98 85.5478 13.1755 85.9668 13.5602C86.3823 13.948 86.5935 14.4557 86.5935 15.0863V33.7527C86.5935 34.3329 86.3823 34.8248 85.9668 35.2284C85.5478 35.6256 85.0131 35.8211 84.3591 35.8211C83.7119 35.8211 83.1874 35.6288 82.7786 35.241C82.3767 34.8563 82.1792 34.3581 82.1792 33.7527V32.6428C81.3685 33.6455 80.2717 34.4968 78.882 35.2031C77.4923 35.9 75.9868 36.25 74.3723 36.25C72.2639 36.25 70.3531 35.7518 68.6364 34.7491C66.9197 33.7401 65.5709 32.3401 64.5899 30.5491C63.6158 28.7582 63.1321 26.7465 63.1321 24.5078C63.1321 22.2722 63.6158 20.2574 64.5899 18.4664C65.5709 16.6755 66.9095 15.2818 68.6091 14.2791C70.3156 13.2701 72.1924 12.7656 74.2361 12.7656C75.8778 12.7656 77.4038 13.0809 78.8139 13.7116C80.2206 14.3422 81.3413 15.1462 82.1792 16.1205V15.0863C82.1792 14.4904 82.3767 13.989 82.7786 13.5854C83.1874 13.1818 83.7119 12.98 84.3591 12.98ZM74.89 32.4662C76.3411 32.4662 77.632 32.1225 78.7594 31.432C79.8937 30.7446 80.7792 29.7987 81.4162 28.5942C82.0497 27.3929 82.3699 26.0307 82.3699 24.5078C82.3699 23.0195 82.0497 21.6763 81.4162 20.4718C80.7792 19.261 79.8937 18.3088 78.7594 17.6088C77.632 16.9025 76.3411 16.5494 74.89 16.5494C73.4254 16.5494 72.1311 16.8962 71.0071 17.5836C69.8796 18.2741 68.9974 19.22 68.3639 20.4214C67.727 21.6259 67.4102 22.988 67.4102 24.5078C67.4102 26.0307 67.727 27.3929 68.3639 28.5942C68.9974 29.7987 69.8796 30.7446 71.0071 31.432C72.1311 32.1225 73.4254 32.4662 74.89 32.4662Z" fill="#5E17EB"/>
<path d="M105.265 12.7656C106.072 12.7656 106.767 12.9611 107.35 13.3458C107.939 13.7336 108.235 14.2161 108.235 14.7962C108.235 15.4773 108.038 16.0007 107.649 16.3602C107.268 16.7228 106.798 16.9025 106.246 16.9025C105.963 16.9025 105.544 16.8142 104.992 16.6376C104.339 16.4358 103.824 16.3349 103.453 16.3349C102.489 16.3349 101.549 16.6471 100.633 17.2683C99.7232 17.8831 98.9841 18.7282 98.4119 19.8034C97.8396 20.8817 97.5535 22.0799 97.5535 23.3979V33.7527C97.5535 34.3329 97.3423 34.8248 96.9268 35.2284C96.5078 35.6257 95.9731 35.8211 95.3191 35.8211C94.6719 35.8211 94.1474 35.6288 93.7386 35.241C93.3367 34.8563 93.1392 34.3581 93.1392 33.7527V15.3512C93.1392 14.7805 93.3469 14.2917 93.7659 13.8881C94.1814 13.4845 94.6992 13.2827 95.3191 13.2827C95.9731 13.2827 96.5078 13.4845 96.9268 13.8881C97.3423 14.2917 97.5535 14.7805 97.5535 15.3512V17.5457C98.2347 16.1426 99.2566 15.0043 100.619 14.1278C101.981 13.2544 103.528 12.8003 105.265 12.7656Z" fill="#5E17EB"/>
<path d="M122.924 12.7656C125.366 12.7656 127.4 13.1282 129.028 13.8503C130.653 14.566 131.467 15.4836 131.467 16.5998C131.467 17.0885 131.293 17.5268 130.949 17.9115C130.612 18.2993 130.179 18.4917 129.655 18.4917C129.253 18.4917 128.936 18.4349 128.701 18.3151C128.473 18.1984 128.156 18.0124 127.747 17.7601C127.563 17.5836 127.27 17.3818 126.862 17.1547C126.497 16.9876 125.969 16.8457 125.281 16.7259C124.6 16.6093 123.98 16.5494 123.428 16.5494C121.82 16.5494 120.393 16.8962 119.15 17.5836C117.914 18.2741 116.957 19.2295 116.275 20.4466C115.594 21.6668 115.253 23.0195 115.253 24.5078C115.253 26.0307 115.584 27.3929 116.248 28.5942C116.919 29.7987 117.859 30.7446 119.068 31.432C120.274 32.1225 121.65 32.4662 123.197 32.4662C124.804 32.4662 126.102 32.2361 127.093 31.7726C127.311 31.6653 127.604 31.4793 127.979 31.2176C128.285 30.9906 128.558 30.8235 128.796 30.7131C129.031 30.5964 129.317 30.5365 129.655 30.5365C130.271 30.5365 130.758 30.7194 131.112 31.0789C131.473 31.432 131.657 31.8955 131.657 32.4662C131.657 33.0716 131.242 33.6707 130.418 34.2572C129.6 34.8374 128.5 35.3166 127.12 35.695C125.738 36.0639 124.263 36.25 122.692 36.25C120.329 36.25 118.251 35.7423 116.452 34.7239C114.661 33.7086 113.278 32.3023 112.297 30.5113C111.323 28.7203 110.839 26.7213 110.839 24.5078C110.839 22.3069 111.347 20.3079 112.365 18.5169C113.39 16.7196 114.817 15.3102 116.643 14.2917C118.469 13.2764 120.56 12.7656 122.924 12.7656Z" fill="#5E17EB"/>
<path d="M148.327 12.8918C153.777 12.8918 156.501 16.0196 156.501 22.2754V33.7527C156.501 34.3329 156.29 34.8248 155.875 35.2284C155.456 35.6257 154.924 35.8212 154.281 35.8212C153.654 35.8212 153.129 35.6257 152.714 35.2284C152.295 34.8248 152.087 34.3329 152.087 33.7527V22.2754C152.087 18.5516 150.384 16.6881 146.978 16.6881C145.152 16.6881 143.633 17.2273 142.427 18.3025C141.218 19.3714 140.615 20.6957 140.615 22.2754V33.7527C140.615 34.3329 140.404 34.8248 139.989 35.2284C139.57 35.6257 139.035 35.8212 138.381 35.8212C137.734 35.8212 137.209 35.6288 136.8 35.241C136.398 34.8563 136.201 34.3581 136.201 33.7527V6.05583C136.201 5.48511 136.409 5.00269 136.828 4.6054C137.243 4.2018 137.761 4 138.381 4C139.035 4 139.57 4.2018 139.989 4.6054C140.404 5.00269 140.615 5.48511 140.615 6.05583V16.9403C141.385 15.8241 142.468 14.8688 143.858 14.0773C145.254 13.2891 146.746 12.8918 148.327 12.8918Z" fill="#5E17EB"/>
<path d="M182.369 8.05583C182.369 8.49411 182.233 8.92608 181.96 9.35491L171.96 22.3835V34.1635C171.96 34.7437 171.749 35.2356 171.333 35.6392C170.914 36.0365 170.413 36.232 169.834 36.232C169.208 36.232 168.676 36.0365 168.24 35.6392C167.811 35.2356 167.6 34.7437 167.6 34.1635V22.043L157.654 9.60715C157.218 9.09635 157 8.57924 157 8.05583C157 7.48511 157.249 7.00269 157.749 6.6054C158.247 6.2018 158.788 6 159.371 6C160.086 6 160.692 6.31531 161.183 6.94593L169.916 18.1205L178.336 6.98377C178.826 6.32792 179.443 6 180.189 6C180.778 6 181.286 6.2018 181.715 6.6054C182.151 7.00269 182.369 7.48511 182.369 8.05583Z" fill="#3B0F94"/>
<path d="M214.089 0C208.793 0 204.499 4.3004 204.499 9.60385C204.499 13.3518 209.284 21.7695 212.094 26.3906C213.004 27.8876 215.172 27.8876 216.083 26.3906C218.893 21.7695 223.677 13.3518 223.677 9.60385C223.677 4.3004 219.384 0 214.089 0ZM214.089 15.541C210.933 15.541 208.376 12.9792 208.376 9.81942C208.376 6.65965 210.933 4.09783 214.089 4.09783C217.243 4.09783 219.801 6.65965 219.801 9.81942C219.801 12.9792 217.243 15.541 214.089 15.541Z" fill="#5E17EB"/>
<path d="M231.141 38.2162L228.278 20.2C228.052 18.7799 226.831 17.7357 225.395 17.7357H222.221C221.866 18.4777 221.493 19.2284 221.107 19.978H223.27C224.436 19.978 225.429 20.8262 225.611 21.9787L226.294 26.2672H225.24C222.901 26.2672 220.671 25.5577 218.79 24.2448C218.421 24.8958 218.056 25.5273 217.703 26.1296C217.906 26.2683 218.113 26.4004 218.323 26.5282L213.608 32.0115L213.047 31.1471C212.003 29.5428 210.237 28.5842 208.325 28.5842H205.525L209.878 25.1027C209.523 24.4864 209.16 23.8473 208.796 23.1952L202.058 28.5842H201.517L202.567 21.9787C202.751 20.8262 203.743 19.978 204.909 19.978H207.072C206.686 19.2284 206.311 18.4777 205.958 17.7357H202.783C201.348 17.7357 200.127 18.781 199.901 20.2L197.037 38.2162C196.755 39.9916 198.124 41.5991 199.92 41.5991H228.259C230.052 41.5991 231.423 39.9916 231.141 38.2162ZM220.328 27.5129C221.872 28.1173 223.532 28.4336 225.239 28.4336H226.637L227.349 32.9084H215.69L220.328 27.5129ZM202.582 39.3568C201.123 39.3568 200.011 38.0516 200.241 36.6098L201.173 30.7506H208.324C209.503 30.7506 210.59 31.341 211.232 32.33L215.806 39.3568H202.582ZM225.595 39.3568H218.386L215.601 35.076H227.692L227.936 36.6098C228.165 38.0516 227.054 39.3568 225.595 39.3568Z" fill="#5E17EB"/>
<path d="M214.91 0C209.614 0 205.321 4.3004 205.321 9.60385C205.321 13.3518 210.106 21.7695 212.916 26.3906C213.826 27.8876 215.994 27.8876 216.904 26.3906C219.714 21.7695 224.499 13.3518 224.499 9.60385C224.499 4.3004 220.206 0 214.91 0ZM214.91 15.541C211.756 15.541 209.198 12.9792 209.198 9.81942C209.198 6.65965 211.756 4.09783 214.91 4.09783C218.065 4.09783 220.623 6.65965 220.623 9.81942C220.623 12.9792 218.065 15.541 214.91 15.541Z" fill="#3B0F94"/>
<path d="M231.963 38.2162L229.1 20.2C228.874 18.7799 227.653 17.7357 226.217 17.7357H223.042C222.689 18.4777 222.315 19.2284 221.928 19.978H224.093C225.258 19.978 226.251 20.8262 226.433 21.9787L227.116 26.2672H226.062C223.723 26.2672 221.493 25.5577 219.612 24.2448C219.243 24.8958 218.878 25.5273 218.525 26.1296C218.728 26.2683 218.935 26.4004 219.144 26.5282L214.43 32.0115L213.869 31.1471C212.825 29.5428 211.059 28.5842 209.147 28.5842H206.347L210.701 25.1027C210.345 24.4864 209.983 23.8473 209.617 23.1952L202.88 28.5842H202.339L203.389 21.9787C203.573 20.8262 204.564 19.978 205.731 19.978H207.894C207.508 19.2284 207.134 18.4777 206.781 17.7357H203.606C202.17 17.7357 200.948 18.781 200.723 20.2L197.859 38.2162C197.577 39.9916 198.947 41.5991 200.743 41.5991H229.081C230.875 41.5991 232.245 39.9916 231.963 38.2162ZM221.151 27.5129C222.694 28.1173 224.355 28.4336 226.061 28.4336H227.459L228.171 32.9084H216.512L221.151 27.5129ZM203.404 39.3568C201.945 39.3568 200.834 38.0516 201.063 36.6098L201.994 30.7506H209.146C210.325 30.7506 211.412 31.341 212.055 32.33L216.628 39.3568H203.404ZM226.417 39.3568H219.208L216.423 35.076H228.514L228.758 36.6098C228.988 38.0516 227.875 39.3568 226.417 39.3568Z" fill="#3B0F94"/>
</svg>
